HIERARCHY
ROOT root
{
  OFFSET 0.000000 0.000000 0.000000
  CHANNELS 6 Xposition Yposition Zposition Zrotation Yrotation Xrotation
  JOINT lhipjoint
  {
    OFFSET 0.000000 0.000000 0.000000
    CHANNELS 3 Zrotation Yrotation Xrotation
    JOINT lfemur
    {
      OFFSET 0.102897 -0.089377 0.049154
      CHANNELS 3 Zrotation Yrotation Xrotation
      JOINT ltibia
      {
        OFFSET 0.137606 -0.378070 0.000000
        CHANNELS 3 Zrotation Yrotation Xrotation
        JOINT lfoot
        {
          OFFSET 0.146354 -0.402104 0.000000
          CHANNELS 3 Zrotation Yrotation Xrotation
          JOINT ltoes
          {
            OFFSET 0.008214 -0.022567 0.120317
            CHANNELS 3 Zrotation Yrotation Xrotation
            End Site
            {
              OFFSET 0.000000 -0.000000 0.061765
            }
          }
        }
      }
    }
  }
  JOINT rhipjoint
  {
    OFFSET 0.000000 0.000000 0.000000
    CHANNELS 3 Zrotation Yrotation Xrotation
    JOINT rfemur
    {
      OFFSET -0.100036 -0.089377 0.049154
      CHANNELS 3 Zrotation Yrotation Xrotation
      JOINT rtibia
      {
        OFFSET -0.141508 -0.388790 0.000000
        CHANNELS 3 Zrotation Yrotation Xrotation
        JOINT rfoot
        {
          OFFSET -0.147670 -0.405720 0.000000
          CHANNELS 3 Zrotation Yrotation Xrotation
          JOINT rtoes
          {
            OFFSET -0.008574 -0.023557 0.121905
            CHANNELS 3 Zrotation Yrotation Xrotation
            End Site
            {
              OFFSET -0.000000 -0.000000 0.062608
            }
          }
        }
      }
    }
  }
  JOINT lowerback
  {
    OFFSET 0.000000 0.000000 0.000000
    CHANNELS 3 Zrotation Yrotation Xrotation
    JOINT upperback
    {
      OFFSET -0.002033 0.119901 -0.017074
      CHANNELS 3 Zrotation Yrotation Xrotation
      JOINT thorax
      {
        OFFSET 0.001534 0.118558 0.007288
        CHANNELS 3 Zrotation Yrotation Xrotation
        JOINT lowerneck
        {
          OFFSET 0.002175 0.121761 0.016192
          CHANNELS 3 Zrotation Yrotation Xrotation
          JOINT upperneck
          {
            OFFSET -0.003596 0.106486 0.006549
            CHANNELS 3 Zrotation Yrotation Xrotation
            JOINT head
            {
              OFFSET 0.004633 0.105979 -0.006494
              CHANNELS 3 Zrotation Yrotation Xrotation
              End Site
              {
                OFFSET 0.001909 0.108988 -0.003095
              }
            }
          }
        }
        JOINT lclavicle
        {
          OFFSET 0.002175 0.121761 0.016192
          CHANNELS 3 Zrotation Yrotation Xrotation
          JOINT lhumerus
          {
            OFFSET 0.186776 0.079223 0.011377
            CHANNELS 3 Zrotation Yrotation Xrotation
            JOINT lradius
            {
              OFFSET 0.306663 -0.000000 0.000000
              CHANNELS 3 Zrotation Yrotation Xrotation
              JOINT lwrist
              {
                OFFSET 0.178328 -0.000000 0.000000
                CHANNELS 3 Zrotation Yrotation Xrotation
                End Site
                {
                  OFFSET 0.089164 -0.000000 0.000000
                }
              }
            }
          }
        }
        JOINT rclavicle
        {
          OFFSET 0.002175 0.121761 0.016192
          CHANNELS 3 Zrotation Yrotation Xrotation
          JOINT rhumerus
          {
            OFFSET -0.176641 0.090332 -0.000262
            CHANNELS 3 Zrotation Yrotation Xrotation
            JOINT rradius
            {
              OFFSET -0.301523 -0.000000 0.000000
              CHANNELS 3 Zrotation Yrotation Xrotation
              JOINT rwrist
              {
                OFFSET -0.180256 -0.000000 0.000000
                CHANNELS 3 Zrotation Yrotation Xrotation
                End Site
                {
                  OFFSET -0.090128 -0.000000 0.000000
                }
              }
            }
          }
        }
      }
    }
  }
}
MOTION
Frames: 8
Frame Time: 0.04166667
0.00000 0.82387 0.00000 1.76563 -18.05160 10.60780 0.00000 -0.00000 0.00000 -21.45742 3.11501 -55.59680 15.17992 19.43361 75.77806 0.13787 19.99910 -29.27944 0.14923 -2.48940 -6.86026 0.00000 -0.00000 0.00000 4.41302 4.53061 -21.60116 -19.68227 -19.99758 89.07098 -0.36605 2.24413 12.47272 -0.68840 5.30435 -14.77869 -8.29286 -0.23454 13.30680 1.91436 -1.51684 -1.80238 7.11430 -0.23472 -9.20926 -2.30030 2.22999 -4.32520 1.44862 3.06382 1.16752 0.89668 1.54154 1.02359 -0.00000 0.00000 0.00000 -69.67477 -31.71048 42.69889 21.68938 -32.62420 -6.41757 0.00000 0.00000 25.68600 -0.00000 0.00000 0.00000 75.97595 -32.44951 45.50443 -94.12007 59.93576 -63.56731 -0.00000 0.00000 -50.91330
0.00000 0.82494 0.00000 5.49935 -16.30010 7.26168 0.00000 -0.00000 0.00000 -25.92209 2.46615 -48.16694 14.36516 19.22107 73.31663 0.13524 21.13991 -30.77439 0.27019 -3.34365 -9.23702 0.00000 -0.00000 0.00000 6.04014 5.92970 -38.73624 -24.80246 -19.43781 104.16900 0.06324 -4.47417 -1.20335 -0.47376 4.41434 -12.24537 -11.95050 -0.00772 15.78640 0.85618 -2.22102 -1.23057 8.27613 -0.39188 -9.81453 -2.35131 1.81778 -4.02741 1.71424 2.50465 1.11617 0.97229 1.26509 0.96473 0.00000 0.00000 0.00000 -67.44305 -32.92275 44.11269 21.58168 -32.50103 -6.35961 0.00000 0.00000 24.82910 0.00000 0.00000 0.00000 78.69289 -28.25838 44.85137 -93.13844 59.96275 -62.71763 -0.00000 0.00000 -52.39540
0.00000 0.82197 0.00000 6.94784 -12.43140 4.13821 0.00000 -0.00000 0.00000 -27.73203 2.32226 -40.07043 13.89699 19.08250 71.88965 0.48937 21.30289 -33.23395 0.44977 -4.30267 -11.92979 0.00000 -0.00000 0.00000 10.38315 9.38263 -52.91248 -25.18536 -19.34275 105.32227 -0.16209 -6.33660 -12.42318 -0.46620 4.37948 -12.14678 -13.23600 0.37236 17.59570 0.48890 -2.21772 -0.45203 8.65830 -0.35852 -9.94649 -2.76649 0.57265 -3.61392 2.13533 0.84143 1.48954 1.14421 0.43500 1.04713 -0.00000 0.00000 0.00000 -69.33730 -37.69448 48.02151 18.02065 -28.18360 -4.55899 0.00000 0.00000 28.83030 -0.00000 0.00000 0.00000 79.36289 -24.41127 47.16505 -110.46043 58.35756 -77.62154 -0.00000 0.00000 -53.64050
0.00000 0.81995 0.00000 8.70022 -6.21177 1.25426 0.00000 -0.00000 0.00000 -29.63776 1.58176 -30.66568 13.06103 18.80408 69.31494 0.95987 20.90244 -35.47993 0.66707 -5.22319 -14.54623 0.00000 -0.00000 0.00000 8.90846 11.58521 -62.72256 -21.71646 -19.92921 95.02429 -0.54681 -0.82156 -14.29028 -0.49060 4.49102 -12.46234 -14.41640 0.82787 18.60000 0.14879 -2.01722 0.09386 8.92543 -0.24148 -9.92337 -3.92774 -1.44562 -3.12754 3.10019 -1.86129 2.96042 1.60599 -0.91609 1.53398 0.00000 -0.00000 0.00000 -75.50918 -41.64770 60.84778 16.77045 -26.55416 -3.98417 0.00000 0.00000 44.53160 0.00000 -0.00000 0.00000 77.53347 -13.10120 48.43256 -131.86916 52.21325 -95.31090 -0.00000 0.00000 -54.27010
0.00000 0.82249 0.00000 8.52781 1.64126 -0.57211 0.00000 -0.00000 0.00000 -28.93383 0.42769 -21.12429 11.95817 18.37291 65.85618 1.60955 19.60357 -37.58258 0.83253 -5.82087 -16.26555 0.00000 -0.00000 0.00000 4.57495 10.43517 -65.53834 -15.10908 -19.41654 75.56506 -0.08397 5.28960 -5.92784 -0.14333 2.43990 -6.72305 -13.65420 0.91133 18.46580 0.76066 -1.64038 0.22130 9.08623 -0.09678 -9.79330 -6.45358 -3.86252 -2.30359 4.31006 -5.10302 4.57878 2.37614 -2.56038 2.17170 0.00000 -0.00000 0.00000 -83.92093 -35.86833 70.08790 25.09559 -36.30154 -8.34643 0.00000 0.00000 67.12350 0.00000 -0.00000 0.00000 72.04999 9.59062 39.62096 -135.19952 50.67036 -97.91568 -0.00000 0.00000 -41.62310
0.00000 0.82765 0.00000 8.25822 8.16312 -2.30680 0.00000 -0.00000 0.00000 -27.18838 1.89627 -11.99350 10.44022 17.65008 60.94982 2.26438 17.87155 -39.26840 0.80408 -5.72295 -15.98266 0.00000 -0.00000 0.00000 -2.24880 9.83648 -59.66600 -7.61747 -15.83056 51.17281 -0.47664 5.21580 15.99682 -0.00536 -0.47292 1.29946 -12.45250 1.56313 17.08050 1.36540 -0.26865 0.09803 8.69842 0.50070 -9.49557 -9.55293 -6.20536 -0.23383 5.01794 -8.35337 5.41383 3.10838 -4.25695 2.48455 -0.00000 0.00000 0.00000 -89.15070 -15.53599 71.16654 49.53342 -52.80558 -25.80202 0.00000 0.00000 22.89290 -0.00000 0.00000 0.00000 64.86678 35.98349 21.56177 -102.26526 59.42386 -70.60148 -0.00000 0.00000 -38.69070
0.00000 0.82662 0.00000 9.10834 14.67360 -3.56737 0.00000 -0.00000 0.00000 -25.56102 4.18943 -4.22327 9.13003 16.89067 56.53872 2.20355 18.81957 -39.77801 0.73732 -5.48562 -15.29900 0.00000 -0.00000 0.00000 -9.78916 9.78433 -50.15333 -3.49629 -11.45811 33.84093 -2.34905 -1.83005 28.52044 -0.22387 -3.04565 8.40586 -12.48240 2.28677 16.61050 0.83328 0.70937 0.19113 7.85872 0.94039 -9.35520 -10.63840 -8.44019 -1.14899 5.74464 -11.32220 7.02607 2.98686 -5.72666 3.21390 0.00000 -0.00000 0.00000 -87.22180 14.25450 64.78855 98.32916 -59.73623 -67.20688 0.00000 -0.00000 -43.79300 0.00000 -0.00000 0.00000 50.59899 57.61620 1.79391 -31.65200 42.26797 -12.50613 -0.00000 0.00000 -9.33172
0.00000 0.81212 0.00000 8.95076 23.64780 -2.81606 0.00000 -0.00000 0.00000 -21.65121 2.63757 -1.42518 9.35342 17.02985 57.30452 1.90896 21.68940 -40.99217 0.44838 -4.29612 -11.91126 0.00000 -0.00000 0.00000 -10.95036 5.04245 -46.66637 -3.83600 -11.93892 35.51623 -1.91882 -3.03967 25.42008 -0.18063 -2.73750 7.54876 -13.32270 3.18056 15.95890 0.87199 1.85931 0.46793 8.09700 1.49406 -8.97412 -12.95380 -11.38720 -0.86802 7.91268 -15.31920 4.86962 3.74357 -7.68375 3.18872 -0.00000 -0.00000 0.00000 -79.14243 29.27898 61.75727 110.25130 -58.39221 -77.44347 0.00000 -0.00000 -47.92690 -0.00000 -0.00000 0.00000 15.65357 62.04883 -48.73252 -6.16610 10.53892 -0.56924 -0.00000 -0.00000 51.92390
